<svg style="display: none;"><symbol viewBox="0 0 21 21" id="shape-decoration-circle"><title>decoration-circle</title> <circle fill="none" stroke="#000000" stroke-width="3" stroke-miterlimit="10" cx="10.5" cy="10.5" r="9"/> </symbol><symbol viewBox="0 0 20 20" id="shape-decoration-plus"><title>decoration-plus</title> <line fill="none" stroke-width="3" stroke-miterlimit="10" x1="0" y1="10.5" x2="20" y2="10.5"/> <line fill="none" stroke-width="3" stroke-miterlimit="10" x1="10.5" y1="20" x2="10.5" y2="0"/> </symbol><symbol viewBox="0 0 50.5 115.3" id="shape-decoration-prism-down"><title>decoration-prism-down</title> <polygon fill="none" stroke="#000000" stroke-width="3" stroke-miterlimit="10" points="47.7,1.5 25.3,108 2.8,1.5 "/> <polygon fill="none" stroke="#000000" stroke-width="3" stroke-miterlimit="10" points="47.7,1.5 25.3,34.9 2.8,1.5 "/> </symbol><symbol viewBox="0 0 21 21" id="shape-decoration-square"><title>decoration-square</title> <rect x="1.5" y="1.5" fill="none" stroke-width="3" stroke-miterlimit="10" width="18" height="18"/> </symbol><symbol viewBox="0 0 409.9 52.2" id="shape-decoration-squiggle-double"><title>decoration-squiggle-double</title> <polyline fill="none" stroke-width="3" stroke-miterlimit="10" points="408.9,22.3 385.2,1.9 357.9,22.1 
	334.2,1.9 306.9,22.3 283.2,1.9 255.9,22.1 232.2,1.9 204.9,22.3 "/> <polyline fill="none" stroke-width="3" stroke-miterlimit="10" points="408.9,50.3 385.2,29.9 357.9,50.1 
	334.2,29.9 306.9,50.3 283.2,29.9 255.9,50.1 232.2,29.9 204.9,50.3 "/> <polyline fill="none" stroke-width="3" stroke-miterlimit="10" points="204.9,22.3 181.2,1.9 153.9,22.1 
	130.2,1.9 102.9,22.3 79.2,1.9 51.9,22.1 28.2,1.9 0.9,22.3 "/> <polyline fill="none" stroke-width="3" stroke-miterlimit="10" points="204.9,50.3 181.2,29.9 153.9,50.1 
	130.2,29.9 102.9,50.3 79.2,29.9 51.9,50.1 28.2,29.9 0.9,50.3 "/> </symbol><symbol viewBox="0 0 95.3 37.4" id="shape-decoration-triangle-wide-down"><title>decoration-triangle-wide-down</title> <polygon stroke-width="3" stroke-miterlimit="10" points="4.3,1.5 47.6,35.5 90.9,1.5 "/> </symbol><symbol viewBox="0 0 78 104" id="shape-decoration-weirdo-shape"><title>decoration-weirdo-shape</title> <rect x="30.5" y="1.5" fill="none" stroke="#000000" stroke-width="3" stroke-miterlimit="10" width="18" height="101"/> <line fill="none" stroke="#000000" stroke-width="3" stroke-miterlimit="10" x1="30" y1="51.5" x2="78" y2="51.5"/> <line fill="none" stroke="#000000" stroke-width="3" stroke-miterlimit="10" x1="0" y1="21.5" x2="48" y2="21.5"/> </symbol><symbol viewBox="0 0 184.3 184.3" id="shape-dribbble"><title>dribbble</title> <path d="M92.2,184.3C41.3,184.3,0,143,0,92.2S41.3,0,92.2,0s92.2,41.3,92.2,92.2S143,184.3,92.2,184.3z M169.9,104.8
	c-2.7-0.9-24.4-7.3-49-3.4c10.3,28.3,14.5,51.3,15.3,56.1C153.8,145.6,166.4,126.7,169.9,104.8z M122.9,164.7
	c-1.2-6.9-5.7-31-16.8-59.7c-0.2,0.1-0.3,0.1-0.5,0.2c-44.4,15.5-60.3,46.3-61.8,49.2C57.2,164.8,74,171,92.2,171
	C103.1,171,113.5,168.8,122.9,164.7z M33.7,144.9c1.8-3.1,23.4-38.8,64-51.9c1-0.3,2.1-0.6,3.1-0.9c-2-4.5-4.1-8.9-6.4-13.4
	C55.1,90.4,16.9,89.9,13.5,89.9c0,0.8,0,1.6,0,2.4C13.4,112.5,21.1,131,33.7,144.9z M15.1,76.2c3.5,0,36,0.2,72.8-9.6
	C74.8,43.4,60.8,23.9,58.7,21C36.7,31.4,20.2,51.7,15.1,76.2z M73.7,15.7c2.2,2.9,16.5,22.4,29.4,46.1c28-10.5,39.8-26.4,41.3-28.4
	c-13.9-12.3-32.2-19.8-52.2-19.8C85.8,13.6,79.6,14.3,73.7,15.7z M153.1,42.5c-1.7,2.2-14.8,19.2-44,31c1.8,3.7,3.6,7.6,5.2,11.4
	c0.6,1.4,1.1,2.7,1.7,4.1c26.2-3.3,52.2,2,54.8,2.5C170.7,73,164,55.9,153.1,42.5z"/> </symbol><symbol viewBox="0 0 100 64.7" id="shape-email"><title>email</title> <path d="M5.9,0C0,0,2.9,2,5.9,4.4l41.2,33.8L94.1,4.4C97.1,2,100,0,94.1,0H47.1H5.9z"/> <path d="M0,8.8v50c0,2.9,3,5.9,5.3,5.9h89.3c2.4,0,5.3-2.9,5.3-5.9v-50L47.1,47.1L0,8.8z"/> </symbol><symbol viewBox="18.7 18.7 62.5 62.5" id="shape-instagram"><title>instagram</title> <g> <path d="M67.8,18.7H32.2c-7.4,0-13.5,6.1-13.5,13.5v35.5c0,7.4,6.1,13.5,13.5,13.5h35.5c7.4,0,13.5-6.1,13.5-13.5V32.2
		C81.3,24.8,75.2,18.7,67.8,18.7z M61,28.7c0-1.2,1-2.2,2.2-2.2h6.6c1.2,0,2.2,1,2.2,2.2v6.6c0,1.2-1,2.2-2.2,2.2h-6.6
		c-1.2,0-2.2-1-2.2-2.2C61,35.3,61,28.7,61,28.7z M67.8,78H32.2C26.6,78,22,73.4,22,67.8V41.3h14.6c3.2-3.9,8-6.4,13.4-6.4
		s10.2,2.5,13.4,6.4H78v26.5C78,73.4,73.4,78,67.8,78z"/> <circle cx="50" cy="51.3" r="14.4"/> </g> </symbol><symbol viewBox="0 0 170.6 42.6" id="shape-logo"><title>logo</title> <g> <path id="svgstoref60383fdf176784d8fcfa9d80eacb414logo-kovalcin-n" d="M167.1,42.1l-6.5-9.9v9.9h-3.8V25.6h4l6.1,9.3v-9.3h3.8v16.6h-3.6V42.1z"/> <path id="svgstoref60383fdf176784d8fcfa9d80eacb414logo-kovalcin-i" d="M140.8,42.1V25.6h4.1v16.6h-4.1V42.1z"/> <path id="svgstoref60383fdf176784d8fcfa9d80eacb414logo-kovalcin-c" d="M125.1,42.4c-5,0-8-3.4-8-8.5s3.2-8.6,7.9-8.6c1.9,0,3.4,0.4,4.6,1.1l-0.6,3.7
		c-1-0.8-2.3-1.3-3.7-1.3c-2.5,0-4.1,1.9-4.1,5.1c0,3.3,1.8,5.1,4.3,5.1c1.3,0,2.5-0.5,3.8-1.2l0.5,3.4
		C128.5,41.9,126.9,42.4,125.1,42.4z"/> <path id="svgstoref60383fdf176784d8fcfa9d80eacb414logo-kovalcin-l" d="M98,42.1V25.6h4.1v13h5.1l0.6,3.6L98,42.1L98,42.1z"/> <path id="svgstoref60383fdf176784d8fcfa9d80eacb414logo-kovalcin-a" d="M78.8,32.6l3,6.7h-5.9L78.8,32.6 M78.8,25.3l-8.9,17.3h17.7L78.8,25.3L78.8,25.3z"/> <path id="svgstoref60383fdf176784d8fcfa9d80eacb414logo-kovalcin-v" d="M55.5,35.3l-3-6.7h5.9L55.5,35.3 M55.5,42.6l8.9-17.3H46.6L55.5,42.6L55.5,42.6z"/> <path id="svgstoref60383fdf176784d8fcfa9d80eacb414logo-kovalcin-o" d="M30.7,42.4c-4.8,0-7.9-3.5-7.9-8.6s3.1-8.6,7.9-8.6s7.9,3.5,7.9,8.6C38.6,38.9,35.5,42.4,30.7,42.4z
		 M30.7,28.5c-2.4,0-3.8,2.1-3.8,5.4s1.4,5.4,3.8,5.4s3.8-2.1,3.8-5.4S33.1,28.5,30.7,28.5z"/> <path id="svgstoref60383fdf176784d8fcfa9d80eacb414logo-kovalcin-k" d="M9.7,42.3l-5.6-7.9v7.7H0V25.6h4.1v7.1l5.2-7.1h4.6L8,33.2l6.1,8.4L9.7,42.3z"/> </g> <g> <path id="svgstoref60383fdf176784d8fcfa9d80eacb414logo-katie-e" d="M87.6,17.3V0.8H98v3.3h-6.3v3h4.8l0.5,3.4h-5.3V14h6.5v3.3H87.6z"/> <path id="svgstoref60383fdf176784d8fcfa9d80eacb414logo-katie-i" d="M71.7,17.3V0.8h4.1v16.6h-4.1V17.3z"/> <path id="svgstoref60383fdf176784d8fcfa9d80eacb414logo-katie-t" d="M56.3,4.3v13.1h-4.1V4.3h-4.6V0.8h13.1l0.6,3.5H56.3z"/> <path id="svgstoref60383fdf176784d8fcfa9d80eacb414logo-katie-a" d="M32.2,7.3l3,6.7h-5.9L32.2,7.3 M32.2,0l-8.9,17.3H41L32.2,0L32.2,0z"/> <path id="svgstoref60383fdf176784d8fcfa9d80eacb414logo-katie-k" d="M9.7,17.5L4.1,9.6v7.7H0V0.8h4.1v7.1l5.2-7.1h4.6L8,8.4l6.1,8.4L9.7,17.5z"/> </g> </symbol><symbol viewBox="0 0 17.7 17.3" id="shape-triangle-down"><title>triangle-down</title> <polygon points="8.9,17.3 17.7,0 0,0 8.9,17.3 "/> </symbol><symbol viewBox="0 0 17.7 17.3" id="shape-triangle-right"><title>triangle-right</title> <polygon points="17.5,8.7 0.2,-0.2 0.2,17.5 17.5,8.7 "/> </symbol><symbol viewBox="0 0 17.7 17.3" id="shape-triangle-up"><title>triangle-up</title> <polygon points="8.9,0 0,17.3 17.7,17.3 8.9,0 "/> </symbol><symbol viewBox="0 0 273.4 222.2" id="shape-twitter"><title>twitter</title> <path d="M273.4,26.3c-10.1,4.5-20.9,7.5-32.2,8.8c11.6-6.9,20.5-17.9,24.7-31C255,10.5,243,15.2,230.2,17.7C220,6.8,205.4,0,189.3,0
	c-31,0-56.1,25.1-56.1,56.1c0,4.4,0.5,8.7,1.5,12.8C88,66.5,46.7,44.2,19,10.3c-4.8,8.3-7.6,17.9-7.6,28.2c0,19.5,9.9,36.6,25,46.7
	c-9.2-0.3-17.8-2.8-25.4-7c0,0.2,0,0.5,0,0.7c0,27.2,19.3,49.8,45,55c-4.7,1.3-9.7,2-14.8,2c-3.6,0-7.1-0.4-10.6-1
	c7.1,22.3,27.9,38.5,52.4,39c-19.2,15-43.4,24-69.7,24c-4.5,0-9-0.3-13.4-0.8c24.8,15.9,54.3,25.2,86,25.2
	c103.2,0,159.6-85.5,159.6-159.6c0-2.4-0.1-4.9-0.2-7.3C256.4,47.4,265.9,37.5,273.4,26.3z"/> </symbol></svg>